<svg width="52" height="52" viewBox="0 0 52 52" fill="none" xmlns="http://www.w3.org/2000/svg">
<rect width="52" height="52" rx="26" fill="black"/>
<rect x="18" y="20" width="2" height="12" rx="1" fill="white"/>
<path d="M23 20.75C23 20.3358 23.3358 20 23.75 20C24.1642 20 24.5 20.3358 24.5 20.75V31.25C24.5 31.6642 24.1642 32 23.75 32C23.3358 32 23 31.6642 23 31.25V20.75Z" fill="white"/>
<path d="M27.5 20.75C27.5 20.3358 27.8358 20 28.25 20C28.6642 20 29 20.3358 29 20.75V31.25C29 31.6642 28.6642 32 28.25 32C27.8358 32 27.5 31.6642 27.5 31.25V20.75Z" fill="white"/>
<rect x="32" y="20" width="2" height="12" rx="1" fill="white"/>
</svg>
