<svg width="24" height="24" viewBox="0 0 24 24" fill="none" xmlns="http://www.w3.org/2000/svg">
<path fill-rule="evenodd" clip-rule="evenodd" d="M11.2379 3.8498C11.5497 3.21803 12.4505 3.21804 12.7623 3.8498L14.8493 8.07845L19.5159 8.75654C20.2131 8.85785 20.4914 9.71463 19.987 10.2064L16.6102 13.4979L17.4073 18.1457C17.5264 18.84 16.7976 19.3696 16.174 19.0417L12.0001 16.8474L7.82617 19.0417C7.20258 19.3696 6.47377 18.84 6.59287 18.1457L7.39001 13.4979L4.01323 10.2064C3.50874 9.71462 3.78714 8.85785 4.48432 8.75654L9.15091 8.07845L11.2379 3.8498ZM12.0001 5.69469L10.3448 9.04873C10.221 9.29961 9.98163 9.47349 9.70478 9.51372L6.00337 10.0516L8.68174 12.6623C8.88207 12.8576 8.97349 13.139 8.92619 13.4147L8.29392 17.1011L11.6046 15.3606C11.8522 15.2305 12.148 15.2305 12.3956 15.3606L15.7063 17.1011L15.074 13.4147C15.0267 13.139 15.1181 12.8576 15.3185 12.6623L17.9968 10.0516L14.2954 9.51372C14.0186 9.47349 13.7792 9.2996 13.6554 9.04873L12.0001 5.69469Z" fill="black"/>
</svg>
