<svg width="52" height="52" viewBox="0 0 52 52" fill="none" xmlns="http://www.w3.org/2000/svg">
<rect width="52" height="52" rx="26" fill="black" fill-opacity="0.1"/>
<path d="M19 25C18.591 25 18.2388 24.8522 17.9433 24.5567C17.6478 24.2612 17.5 23.909 17.5 23.5V19C17.5 18.591 17.6478 18.2388 17.9433 17.9433C18.2388 17.6478 18.591 17.5 19 17.5H23.5C23.909 17.5 24.2612 17.6478 24.5567 17.9433C24.8522 18.2388 25 18.591 25 19V23.5C25 23.909 24.8522 24.2612 24.5567 24.5567C24.2612 24.8522 23.909 25 23.5 25H19ZM19 23.5H23.5V19H19V23.5ZM19 34.5C18.591 34.5 18.2388 34.3522 17.9433 34.0567C17.6478 33.7612 17.5 33.4089 17.5 33V28.5C17.5 28.091 17.6478 27.7387 17.9433 27.4432C18.2388 27.1477 18.591 27 19 27H23.5C23.909 27 24.2612 27.1477 24.5567 27.4432C24.8522 27.7387 25 28.091 25 28.5V33C25 33.4089 24.8522 33.7612 24.5567 34.0567C24.2612 34.3522 23.909 34.5 23.5 34.5H19ZM19 33H23.5V28.5H19V33ZM28.5 25C28.091 25 27.7387 24.8522 27.4432 24.5567C27.1477 24.2612 27 23.909 27 23.5V19C27 18.591 27.1477 18.2388 27.4432 17.9433C27.7387 17.6478 28.091 17.5 28.5 17.5H33C33.4089 17.5 33.7612 17.6478 34.0567 17.9433C34.3522 18.2388 34.5 18.591 34.5 19V23.5C34.5 23.909 34.3522 24.2612 34.0567 24.5567C33.7612 24.8522 33.4089 25 33 25H28.5ZM28.5 23.5H33V19H28.5V23.5ZM33.0865 34.5C32.9596 34.5 32.8509 34.4548 32.7605 34.3644C32.6701 34.274 32.625 34.1653 32.625 34.0384V33.0865C32.625 32.9596 32.6701 32.8509 32.7605 32.7605C32.8509 32.6701 32.9596 32.625 33.0865 32.625H34.0384C34.1653 32.625 34.274 32.6701 34.3644 32.7605C34.4548 32.8509 34.5 32.9596 34.5 33.0865V34.0384C34.5 34.1653 34.4548 34.274 34.3644 34.3644C34.274 34.4548 34.1653 34.5 34.0384 34.5H33.0865ZM27.4615 28.875C27.3346 28.875 27.2259 28.8298 27.1356 28.7394C27.0452 28.649 27 28.5404 27 28.4134V27.4615C27 27.3346 27.0452 27.2259 27.1356 27.1356C27.2259 27.0452 27.3346 27 27.4615 27H28.4134C28.5404 27 28.649 27.0452 28.7394 27.1356C28.8298 27.2259 28.875 27.3346 28.875 27.4615V28.4134C28.875 28.5404 28.8298 28.649 28.7394 28.7394C28.649 28.8298 28.5404 28.875 28.4134 28.875H27.4615ZM29.3365 30.75C29.2096 30.75 29.1009 30.7048 29.0106 30.6144C28.9202 30.524 28.875 30.4153 28.875 30.2884V29.3365C28.875 29.2096 28.9202 29.1009 29.0106 29.0106C29.1009 28.9202 29.2096 28.875 29.3365 28.875H30.2884C30.4153 28.875 30.524 28.9202 30.6144 29.0106C30.7048 29.1009 30.75 29.2096 30.75 29.3365V30.2884C30.75 30.4153 30.7048 30.524 30.6144 30.6144C30.524 30.7048 30.4153 30.75 30.2884 30.75H29.3365ZM27.4615 32.625C27.3346 32.625 27.2259 32.5798 27.1356 32.4894C27.0452 32.399 27 32.2903 27 32.1634V31.2115C27 31.0846 27.0452 30.9759 27.1356 30.8855C27.2259 30.7951 27.3346 30.75 27.4615 30.75H28.4134C28.5404 30.75 28.649 30.7951 28.7394 30.8855C28.8298 30.9759 28.875 31.0846 28.875 31.2115V32.1634C28.875 32.2903 28.8298 32.399 28.7394 32.4894C28.649 32.5798 28.5404 32.625 28.4134 32.625H27.4615ZM29.3365 34.5C29.2096 34.5 29.1009 34.4548 29.0106 34.3644C28.9202 34.274 28.875 34.1653 28.875 34.0384V33.0865C28.875 32.9596 28.9202 32.8509 29.0106 32.7605C29.1009 32.6701 29.2096 32.625 29.3365 32.625H30.2884C30.4153 32.625 30.524 32.6701 30.6144 32.7605C30.7048 32.8509 30.75 32.9596 30.75 33.0865V34.0384C30.75 34.1653 30.7048 34.274 30.6144 34.3644C30.524 34.4548 30.4153 34.5 30.2884 34.5H29.3365ZM31.2115 32.625C31.0846 32.625 30.9759 32.5798 30.8855 32.4894C30.7951 32.399 30.75 32.2903 30.75 32.1634V31.2115C30.75 31.0846 30.7951 30.9759 30.8855 30.8855C30.9759 30.7951 31.0846 30.75 31.2115 30.75H32.1634C32.2903 30.75 32.399 30.7951 32.4894 30.8855C32.5798 30.9759 32.625 31.0846 32.625 31.2115V32.1634C32.625 32.2903 32.5798 32.399 32.4894 32.4894C32.399 32.5798 32.2903 32.625 32.1634 32.625H31.2115ZM31.2115 28.875C31.0846 28.875 30.9759 28.8298 30.8855 28.7394C30.7951 28.649 30.75 28.5404 30.75 28.4134V27.4615C30.75 27.3346 30.7951 27.2259 30.8855 27.1356C30.9759 27.0452 31.0846 27 31.2115 27H32.1634C32.2903 27 32.399 27.0452 32.4894 27.1356C32.5798 27.2259 32.625 27.3346 32.625 27.4615V28.4134C32.625 28.5404 32.5798 28.649 32.4894 28.7394C32.399 28.8298 32.2903 28.875 32.1634 28.875H31.2115ZM33.0865 30.75C32.9596 30.75 32.8509 30.7048 32.7605 30.6144C32.6701 30.524 32.625 30.4153 32.625 30.2884V29.3365C32.625 29.2096 32.6701 29.1009 32.7605 29.0106C32.8509 28.9202 32.9596 28.875 33.0865 28.875H34.0384C34.1653 28.875 34.274 28.9202 34.3644 29.0106C34.4548 29.1009 34.5 29.2096 34.5 29.3365V30.2884C34.5 30.4153 34.4548 30.524 34.3644 30.6144C34.274 30.7048 34.1653 30.75 34.0384 30.75H33.0865Z" fill="black"/>
</svg>
