<svg width="53" height="52" viewBox="0 0 53 52" fill="none" xmlns="http://www.w3.org/2000/svg">
<rect x="0.25" width="52" height="52" rx="26" fill="black" fill-opacity="0.1"/>
<rect x="18.25" y="20" width="2" height="12" rx="1" fill="black"/>
<path d="M23.25 20.75C23.25 20.3358 23.5858 20 24 20C24.4142 20 24.75 20.3358 24.75 20.75V31.25C24.75 31.6642 24.4142 32 24 32C23.5858 32 23.25 31.6642 23.25 31.25V20.75Z" fill="black"/>
<path d="M27.75 20.75C27.75 20.3358 28.0858 20 28.5 20C28.9142 20 29.25 20.3358 29.25 20.75V31.25C29.25 31.6642 28.9142 32 28.5 32C28.0858 32 27.75 31.6642 27.75 31.25V20.75Z" fill="black"/>
<rect x="32.25" y="20" width="2" height="12" rx="1" fill="black"/>
</svg>
