<svg width="24" height="24" viewBox="0 0 24 24" fill="none" xmlns="http://www.w3.org/2000/svg">
<path fill-rule="evenodd" clip-rule="evenodd" d="M18.5 13.2857V11C18.5 9.36367 18.4982 8.24933 18.4114 7.39619C18.3272 6.56812 18.1755 6.15398 17.9824 5.86502C17.7583 5.52965 17.4703 5.2417 17.135 5.01761C16.846 4.82453 16.4319 4.67282 15.6038 4.58859C14.7507 4.5018 13.6363 4.49998 12 4.49998C10.3637 4.49998 9.24935 4.5018 8.39621 4.58859C7.56813 4.67282 7.154 4.82453 6.86503 5.01761C6.52966 5.2417 6.24172 5.52965 6.01763 5.86502C5.82455 6.15398 5.67284 6.56812 5.5886 7.39619C5.50181 8.24934 5.5 9.36367 5.5 11V13.2857C5.5 14.922 5.50181 16.0364 5.5886 16.8895C5.67284 17.7176 5.82455 18.1317 6.01763 18.4207C6.24172 18.756 6.52966 19.044 6.86503 19.2681C7.154 19.4612 7.56813 19.6129 8.39621 19.6971C9.24935 19.7839 10.3637 19.7857 12 19.7857C13.6363 19.7857 14.7507 19.7839 15.6038 19.6971C16.4319 19.6129 16.846 19.4612 17.135 19.2681C17.4703 19.044 17.7583 18.756 17.9824 18.4207C18.1755 18.1317 18.3272 17.7176 18.4114 16.8895C18.4982 16.0363 18.5 14.922 18.5 13.2857ZM4.77042 5.03166C4 6.18469 4 7.78979 4 11V13.2857C4 16.4959 4 18.101 4.77042 19.254C5.10395 19.7532 5.53252 20.1818 6.03168 20.5153C7.1847 21.2857 8.7898 21.2857 12 21.2857C15.2102 21.2857 16.8153 21.2857 17.9683 20.5153C18.4675 20.1818 18.8961 19.7532 19.2296 19.254C20 18.101 20 16.4959 20 13.2857V11C20 7.78978 20 6.18469 19.2296 5.03166C18.8961 4.53251 18.4675 4.10393 17.9683 3.77041C16.8153 2.99998 15.2102 2.99998 12 2.99998C8.7898 2.99998 7.1847 2.99998 6.03168 3.77041C5.53252 4.10393 5.10395 4.53251 4.77042 5.03166Z" fill="black"/>
<path d="M7 17.0714C7 16.7558 7.25584 16.5 7.57143 16.5H13.4286C13.7442 16.5 14 16.7558 14 17.0714V17.4286C14 17.7441 13.7442 18 13.4286 18H7.57143C7.25584 18 7 17.7441 7 17.4286V17.0714Z" fill="black"/>
<path d="M7 14.5714C7 14.2558 7.25584 14 7.57143 14H15.4286C15.7442 14 16 14.2558 16 14.5714V14.9286C16 15.2441 15.7442 15.5 15.4286 15.5H7.57143C7.25584 15.5 7 15.2441 7 14.9286V14.5714Z" fill="black"/>
<path fill-rule="evenodd" clip-rule="evenodd" d="M10.7143 7.99998H9.28571C9.01076 7.99998 8.79567 8.00008 8.61122 8.00474C8.57417 8.00567 8.53984 8.00677 8.50802 8.008C8.50678 8.03983 8.50569 8.07415 8.50475 8.1112C8.5001 8.29565 8.5 8.51075 8.5 8.7857V10.2143C8.5 10.4892 8.5001 10.7043 8.50475 10.8888C8.50569 10.9258 8.50678 10.9601 8.50802 10.992C8.53984 10.9932 8.57417 10.9943 8.61122 10.9952C8.79567 10.9999 9.01076 11 9.28571 11H10.7143C10.9892 11 11.2043 10.9999 11.3888 10.9952C11.4258 10.9943 11.4602 10.9932 11.492 10.992C11.4932 10.9601 11.4943 10.9258 11.4952 10.8888C11.4999 10.7043 11.5 10.4892 11.5 10.2143V8.7857C11.5 8.51075 11.4999 8.29565 11.4952 8.1112C11.4943 8.07415 11.4932 8.03983 11.492 8.008C11.4602 8.00677 11.4258 8.00567 11.3888 8.00474C11.2043 8.00008 10.9892 7.99998 10.7143 7.99998ZM7.33474 6.83472C7 7.16946 7 7.7082 7 8.7857V10.2143C7 11.2918 7 11.8305 7.33474 12.1652C7.66947 12.5 8.20822 12.5 9.28571 12.5H10.7143C11.7918 12.5 12.3305 12.5 12.6653 12.1652C13 11.8305 13 11.2918 13 10.2143V8.7857C13 7.7082 13 7.16946 12.6653 6.83472C12.3305 6.49998 11.7918 6.49998 10.7143 6.49998H9.28571C8.20822 6.49998 7.66947 6.49998 7.33474 6.83472Z" fill="black"/>
</svg>
