<svg width="24" height="24" viewBox="0 0 24 24" fill="none" xmlns="http://www.w3.org/2000/svg">
<path fill-rule="evenodd" clip-rule="evenodd" d="M12 19.5C16.1421 19.5 19.5 16.1421 19.5 12C19.5 7.85786 16.1421 4.5 12 4.5C7.85786 4.5 4.5 7.85786 4.5 12C4.5 16.1421 7.85786 19.5 12 19.5ZM12 21C16.9706 21 21 16.9706 21 12C21 7.02944 16.9706 3 12 3C7.02944 3 3 7.02944 3 12C3 16.9706 7.02944 21 12 21Z" fill="black"/>
<path d="M12.1446 13.8007C11.7314 13.8007 11.3566 13.4681 11.4637 13.0691C11.5876 12.6075 11.9149 12.243 12.5922 11.6979C13.4381 10.9969 13.6798 10.6586 13.6798 10.0543C13.6798 9.13586 13.0756 8.57996 12.1329 8.57996C11.2638 8.57996 10.631 9.0526 10.3384 9.83624C10.1987 10.2106 9.83567 10.494 9.44387 10.4156C9.10407 10.3477 8.86327 10.031 8.94988 9.69543C9.32241 8.25208 10.5136 7.34729 12.1571 7.34729C13.9457 7.34729 15.1542 8.3866 15.1542 9.95764C15.1542 10.9244 14.7191 11.6254 13.6315 12.423C13.284 12.6778 13.0477 13.0168 12.8393 13.385C12.6965 13.6372 12.4345 13.8007 12.1446 13.8007ZM12.0604 16.6527C11.5398 16.6527 11.1178 16.2307 11.1178 15.7101C11.1178 15.1895 11.5398 14.7675 12.0604 14.7675C12.581 14.7675 13.0031 15.1895 13.0031 15.7101C13.0031 16.2307 12.581 16.6527 12.0604 16.6527Z" fill="black"/>
</svg>
