<svg width="24" height="25" viewBox="0 0 24 25" fill="none" xmlns="http://www.w3.org/2000/svg">
<path d="M4.7473 15.9942H9.78024C10.1254 15.9942 10.4052 16.274 10.4052 16.6192V16.9902C10.4052 17.3354 10.1254 17.6152 9.78024 17.6152H3.625C3.27982 17.6152 3 17.3354 3 16.9902V7.24023C3 6.89506 3.27982 6.61523 3.625 6.61523H9.64157C9.98674 6.61523 10.2666 6.89506 10.2666 7.24023V7.61129C10.2666 7.95646 9.98674 8.23629 9.64156 8.23629H4.7473V11.1889H8.39349C8.73867 11.1889 9.01849 11.4687 9.01849 11.8139V12.1271C9.01849 12.4723 8.73867 12.7521 8.39349 12.7521H4.7473V15.9942Z" fill="black"/>
<path d="M19.3359 7.24023C19.3359 6.89506 19.6157 6.61523 19.9609 6.61523H20.375C20.7202 6.61523 21 6.89506 21 7.24023V16.9902C21 17.3354 20.7202 17.6152 20.375 17.6152H19.3082L13.8444 9.48102V16.9902C13.8444 17.3354 13.5646 17.6152 13.2194 17.6152H12.8053C12.4601 17.6152 12.1803 17.3354 12.1803 16.9902V7.24023C12.1803 6.89506 12.4601 6.61523 12.8053 6.61523H13.8998L19.3359 14.6916V7.24023Z" fill="black"/>
</svg>
