<svg width="53" height="52" viewBox="0 0 53 52" fill="none" xmlns="http://www.w3.org/2000/svg">
<rect x="0.75" width="52" height="52" rx="26" fill="black"/>
<path d="M19.75 25C19.341 25 18.9888 24.8522 18.6933 24.5567C18.3978 24.2612 18.25 23.909 18.25 23.5V19C18.25 18.591 18.3978 18.2388 18.6933 17.9433C18.9888 17.6478 19.341 17.5 19.75 17.5H24.25C24.659 17.5 25.0112 17.6478 25.3067 17.9433C25.6022 18.2388 25.75 18.591 25.75 19V23.5C25.75 23.909 25.6022 24.2612 25.3067 24.5567C25.0112 24.8522 24.659 25 24.25 25H19.75ZM19.75 23.5H24.25V19H19.75V23.5ZM19.75 34.5C19.341 34.5 18.9888 34.3522 18.6933 34.0567C18.3978 33.7612 18.25 33.4089 18.25 33V28.5C18.25 28.091 18.3978 27.7387 18.6933 27.4432C18.9888 27.1477 19.341 27 19.75 27H24.25C24.659 27 25.0112 27.1477 25.3067 27.4432C25.6022 27.7387 25.75 28.091 25.75 28.5V33C25.75 33.4089 25.6022 33.7612 25.3067 34.0567C25.0112 34.3522 24.659 34.5 24.25 34.5H19.75ZM19.75 33H24.25V28.5H19.75V33ZM29.25 25C28.841 25 28.4887 24.8522 28.1932 24.5567C27.8977 24.2612 27.75 23.909 27.75 23.5V19C27.75 18.591 27.8977 18.2388 28.1932 17.9433C28.4887 17.6478 28.841 17.5 29.25 17.5H33.75C34.1589 17.5 34.5112 17.6478 34.8067 17.9433C35.1022 18.2388 35.25 18.591 35.25 19V23.5C35.25 23.909 35.1022 24.2612 34.8067 24.5567C34.5112 24.8522 34.1589 25 33.75 25H29.25ZM29.25 23.5H33.75V19H29.25V23.5ZM33.8365 34.5C33.7096 34.5 33.6009 34.4548 33.5105 34.3644C33.4201 34.274 33.375 34.1653 33.375 34.0384V33.0865C33.375 32.9596 33.4201 32.8509 33.5105 32.7605C33.6009 32.6701 33.7096 32.625 33.8365 32.625H34.7884C34.9153 32.625 35.024 32.6701 35.1144 32.7605C35.2048 32.8509 35.25 32.9596 35.25 33.0865V34.0384C35.25 34.1653 35.2048 34.274 35.1144 34.3644C35.024 34.4548 34.9153 34.5 34.7884 34.5H33.8365ZM28.2115 28.875C28.0846 28.875 27.9759 28.8298 27.8856 28.7394C27.7952 28.649 27.75 28.5404 27.75 28.4134V27.4615C27.75 27.3346 27.7952 27.2259 27.8856 27.1356C27.9759 27.0452 28.0846 27 28.2115 27H29.1634C29.2904 27 29.399 27.0452 29.4894 27.1356C29.5798 27.2259 29.625 27.3346 29.625 27.4615V28.4134C29.625 28.5404 29.5798 28.649 29.4894 28.7394C29.399 28.8298 29.2904 28.875 29.1634 28.875H28.2115ZM30.0865 30.75C29.9596 30.75 29.8509 30.7048 29.7606 30.6144C29.6702 30.524 29.625 30.4153 29.625 30.2884V29.3365C29.625 29.2096 29.6702 29.1009 29.7606 29.0106C29.8509 28.9202 29.9596 28.875 30.0865 28.875H31.0384C31.1653 28.875 31.274 28.9202 31.3644 29.0106C31.4548 29.1009 31.5 29.2096 31.5 29.3365V30.2884C31.5 30.4153 31.4548 30.524 31.3644 30.6144C31.274 30.7048 31.1653 30.75 31.0384 30.75H30.0865ZM28.2115 32.625C28.0846 32.625 27.9759 32.5798 27.8856 32.4894C27.7952 32.399 27.75 32.2903 27.75 32.1634V31.2115C27.75 31.0846 27.7952 30.9759 27.8856 30.8855C27.9759 30.7951 28.0846 30.75 28.2115 30.75H29.1634C29.2904 30.75 29.399 30.7951 29.4894 30.8855C29.5798 30.9759 29.625 31.0846 29.625 31.2115V32.1634C29.625 32.2903 29.5798 32.399 29.4894 32.4894C29.399 32.5798 29.2904 32.625 29.1634 32.625H28.2115ZM30.0865 34.5C29.9596 34.5 29.8509 34.4548 29.7606 34.3644C29.6702 34.274 29.625 34.1653 29.625 34.0384V33.0865C29.625 32.9596 29.6702 32.8509 29.7606 32.7605C29.8509 32.6701 29.9596 32.625 30.0865 32.625H31.0384C31.1653 32.625 31.274 32.6701 31.3644 32.7605C31.4548 32.8509 31.5 32.9596 31.5 33.0865V34.0384C31.5 34.1653 31.4548 34.274 31.3644 34.3644C31.274 34.4548 31.1653 34.5 31.0384 34.5H30.0865ZM31.9615 32.625C31.8346 32.625 31.7259 32.5798 31.6355 32.4894C31.5451 32.399 31.5 32.2903 31.5 32.1634V31.2115C31.5 31.0846 31.5451 30.9759 31.6355 30.8855C31.7259 30.7951 31.8346 30.75 31.9615 30.75H32.9134C33.0403 30.75 33.149 30.7951 33.2394 30.8855C33.3298 30.9759 33.375 31.0846 33.375 31.2115V32.1634C33.375 32.2903 33.3298 32.399 33.2394 32.4894C33.149 32.5798 33.0403 32.625 32.9134 32.625H31.9615ZM31.9615 28.875C31.8346 28.875 31.7259 28.8298 31.6355 28.7394C31.5451 28.649 31.5 28.5404 31.5 28.4134V27.4615C31.5 27.3346 31.5451 27.2259 31.6355 27.1356C31.7259 27.0452 31.8346 27 31.9615 27H32.9134C33.0403 27 33.149 27.0452 33.2394 27.1356C33.3298 27.2259 33.375 27.3346 33.375 27.4615V28.4134C33.375 28.5404 33.3298 28.649 33.2394 28.7394C33.149 28.8298 33.0403 28.875 32.9134 28.875H31.9615ZM33.8365 30.75C33.7096 30.75 33.6009 30.7048 33.5105 30.6144C33.4201 30.524 33.375 30.4153 33.375 30.2884V29.3365C33.375 29.2096 33.4201 29.1009 33.5105 29.0106C33.6009 28.9202 33.7096 28.875 33.8365 28.875H34.7884C34.9153 28.875 35.024 28.9202 35.1144 29.0106C35.2048 29.1009 35.25 29.2096 35.25 29.3365V30.2884C35.25 30.4153 35.2048 30.524 35.1144 30.6144C35.024 30.7048 34.9153 30.75 34.7884 30.75H33.8365Z" fill="white"/>
</svg>
