<svg width="24" height="24" viewBox="0 0 24 24" fill="none" xmlns="http://www.w3.org/2000/svg">
<path fill-rule="evenodd" clip-rule="evenodd" d="M4 5.18333C4.41421 5.18333 4.75 5.51912 4.75 5.93333V9.85H8.66667C9.08088 9.85 9.41667 10.1858 9.41667 10.6C9.41667 11.0142 9.08088 11.35 8.66667 11.35H4C3.58579 11.35 3.25 11.0142 3.25 10.6V5.93333C3.25 5.51912 3.58579 5.18333 4 5.18333Z" fill="black"/>
<path fill-rule="evenodd" clip-rule="evenodd" d="M15.3833 13.4C15.3833 12.9858 15.7191 12.65 16.1333 12.65H20.8C21.2142 12.65 21.55 12.9858 21.55 13.4V18.0667C21.55 18.4809 21.2142 18.8167 20.8 18.8167C20.3858 18.8167 20.05 18.4809 20.05 18.0667V14.15H16.1333C15.7191 14.15 15.3833 13.8142 15.3833 13.4Z" fill="black"/>
<path fill-rule="evenodd" clip-rule="evenodd" d="M10.2826 4.55631C11.5215 4.19122 12.8313 4.15178 14.0894 4.44179C15.3475 4.73179 16.5115 5.34144 17.4734 6.21245C18.4352 7.08338 19.1635 8.18713 19.5918 9.41997C19.7277 9.81125 19.5206 10.2386 19.1294 10.3745C18.7381 10.5104 18.3107 10.3034 18.1748 9.91214C17.8284 8.91494 17.2403 8.02491 16.4666 7.32434C15.693 6.62385 14.7591 6.1355 13.7525 5.90346C12.7459 5.67143 11.6982 5.70293 10.7066 5.99514C9.71493 6.28736 8.81062 6.83117 8.07865 7.57727C8.07316 7.58287 8.06758 7.58838 8.06191 7.5938L4.51864 10.9858C4.21943 11.2722 3.74467 11.2619 3.45823 10.9627C3.1718 10.6635 3.18215 10.1887 3.48136 9.90227L7.01636 6.51819C7.92434 5.59559 9.04759 4.92024 10.2826 4.55631ZM21.3418 13.0373C21.6282 13.3365 21.6179 13.8113 21.3186 14.0977L17.7836 17.4818C16.8757 18.4044 15.7524 19.0798 14.5174 19.4437C13.2785 19.8088 11.9687 19.8482 10.7106 19.5582C9.45254 19.2682 8.28848 18.6586 7.32658 17.7875C6.36476 16.9166 5.63646 15.8129 5.20825 14.58C5.07234 14.1887 5.27936 13.7614 5.67064 13.6255C6.06193 13.4896 6.4893 13.6966 6.62521 14.0879C6.97158 15.0851 7.55973 15.9751 8.33341 16.6757C9.107 17.3762 10.0409 17.8645 11.0475 18.0965C12.0541 18.3286 13.1018 18.2971 14.0934 18.0049C15.0851 17.7126 15.9894 17.1688 16.7214 16.4227C16.7268 16.4171 16.7324 16.4116 16.7381 16.4062L20.2814 13.0142C20.5806 12.7278 21.0553 12.7381 21.3418 13.0373Z" fill="black"/>
</svg>
