<svg width="24" height="24" viewBox="0 0 24 24" fill="none" xmlns="http://www.w3.org/2000/svg">
<path fill-rule="evenodd" clip-rule="evenodd" d="M14.7255 3.46802C15.0193 3.17604 15.4941 3.17752 15.7861 3.47132L20.0573 7.76923L15.7861 12.0671C15.4941 12.3609 15.0193 12.3624 14.7255 12.0704C14.4317 11.7785 14.4302 11.3036 14.7222 11.0098L17.1972 8.51923H8.23072C7.81651 8.51923 7.48072 8.18344 7.48072 7.76923C7.48072 7.35502 7.81651 7.01923 8.23072 7.01923H17.1972L14.7222 4.52868C14.4302 4.23487 14.4317 3.76 14.7255 3.46802Z" fill="black"/>
<path fill-rule="evenodd" clip-rule="evenodd" d="M9.27449 20.6858C8.98069 20.9778 8.50582 20.9763 8.21384 20.6825L3.94263 16.3846L8.21384 12.0867C8.50582 11.7929 8.98069 11.7914 9.27449 12.0834C9.5683 12.3754 9.56978 12.8503 9.2778 13.1441L6.80271 15.6346L15.7692 15.6346C16.1834 15.6346 16.5192 15.9704 16.5192 16.3846C16.5192 16.7988 16.1834 17.1346 15.7692 17.1346L6.80271 17.1346L9.2778 19.6252C9.56978 19.919 9.5683 20.3939 9.27449 20.6858Z" fill="black"/>
</svg>
