<svg width="24" height="24" viewBox="0 0 24 24" fill="none" xmlns="http://www.w3.org/2000/svg">
<path fill-rule="evenodd" clip-rule="evenodd" d="M19.3397 17.7511L18.495 15.0773H14.2106L13.3659 17.7511C13.3187 17.9005 13.184 17.9999 13.0339 17.9999H12.0625C11.8238 17.9999 11.6516 17.7556 11.7336 17.518L15.2837 7.23949C15.3336 7.09492 15.4659 7 15.6125 7H17.1006C17.2472 7 17.3796 7.09492 17.4295 7.23949L20.9796 17.518C21.0616 17.7556 20.8893 17.9999 20.6507 17.9999H19.6717C19.5216 17.9999 19.3869 17.9005 19.3397 17.7511ZM16.4897 8.70719H16.2237L14.6056 13.8246H18.0997L16.4897 8.70719Z" fill="black"/>
<path d="M6.35869 17.9999C4.99856 17.9999 3.91017 17.595 3.16354 16.9048C2.4182 16.2159 2 15.2305 2 14.0403V7.36068C2 7.15963 2.15815 7 2.34915 7H3.30746C3.49847 7 3.65662 7.15963 3.65662 7.36068V13.8786C3.65662 14.68 3.8981 15.3593 4.36661 15.8388C4.83544 16.3185 5.51508 16.5812 6.35869 16.5812C7.20232 16.5812 7.88022 16.3185 8.3472 15.8385C8.81379 15.359 9.05317 14.6796 9.05317 13.8786V7.36068C9.05317 7.15963 9.21132 7 9.40233 7H10.353C10.544 7 10.7022 7.15963 10.7022 7.36068V14.0403C10.7022 15.2311 10.2893 16.2164 9.54875 16.9051C8.80703 17.5949 7.72268 17.9999 6.35869 17.9999Z" fill="black"/>
</svg>
